<svg width="25" height="25" viewBox="0 0 25 25" fill="none" xmlns="http://www.w3.org/2000/svg">
<path d="M12.5001 0C5.59739 0 0 5.59636 0 12.5001C0 18.023 3.58166 22.7085 8.54833 24.3614C9.17305 24.4771 9.4024 24.0902 9.4024 23.7601C9.4024 23.462 9.39081 22.4773 9.38543 21.4328C5.90789 22.189 5.17408 19.958 5.17408 19.958C4.60546 18.5131 3.78617 18.129 3.78617 18.129C2.65204 17.3531 3.87166 17.3691 3.87166 17.3691C5.12689 17.4573 5.78783 18.6572 5.78783 18.6572C6.90271 20.5682 8.71207 20.0157 9.42538 19.6963C9.53757 18.8884 9.86152 18.337 10.219 18.0248C7.44256 17.7088 4.52391 16.6369 4.52391 11.8472C4.52391 10.4825 5.01221 9.36742 5.81184 8.49203C5.68205 8.17719 5.25419 6.90582 5.93293 5.18402C5.93293 5.18402 6.98261 4.84806 9.37135 6.46533C10.3685 6.18837 11.4378 6.04947 12.5001 6.04471C13.5624 6.04947 14.6326 6.18837 15.6315 6.46533C18.0174 4.84806 19.0656 5.18402 19.0656 5.18402C19.746 6.90582 19.3179 8.17719 19.1882 8.49203C19.9897 9.36742 20.4746 10.4825 20.4746 11.8472C20.4746 16.6483 17.5504 17.7054 14.7669 18.0149C15.2153 18.4028 15.6148 19.1635 15.6148 20.3297C15.6148 22.0023 15.6003 23.3484 15.6003 23.7601C15.6003 24.0927 15.8253 24.4825 16.4589 24.3598C21.4229 22.705 25 18.0211 25 12.5001C25 5.59636 19.4034 0 12.5001 0ZM4.6817 17.8067C4.65416 17.8688 4.55646 17.8874 4.46745 17.8447C4.37679 17.804 4.32587 17.7193 4.35526 17.657C4.38217 17.593 4.48008 17.5752 4.57054 17.6181C4.66141 17.6589 4.71316 17.7444 4.6817 17.8067ZM5.29656 18.3553C5.23695 18.4106 5.12041 18.3849 5.04133 18.2975C4.95957 18.2104 4.94425 18.0939 5.0047 18.0378C5.06617 17.9825 5.17919 18.0084 5.26116 18.0955C5.34293 18.1837 5.35887 18.2994 5.29656 18.3553ZM5.71838 19.0573C5.64179 19.1105 5.51656 19.0606 5.43914 18.9494C5.36256 18.8383 5.36256 18.705 5.4408 18.6515C5.51842 18.5981 5.64179 18.6462 5.72025 18.7565C5.79663 18.8695 5.79663 19.0028 5.71838 19.0573ZM6.43177 19.8702C6.36326 19.9458 6.21732 19.9255 6.11051 19.8224C6.00122 19.7216 5.97079 19.5786 6.03952 19.503C6.10886 19.4273 6.25562 19.4486 6.36326 19.5508C6.47172 19.6514 6.50484 19.7955 6.43177 19.8702ZM7.35376 20.1447C7.32354 20.2426 7.18299 20.2871 7.0414 20.2455C6.90002 20.2026 6.8075 20.088 6.83606 19.989C6.86546 19.8905 7.00663 19.8441 7.14925 19.8886C7.29042 19.9313 7.38315 20.0451 7.35376 20.1447ZM8.40302 20.2611C8.40654 20.3642 8.28648 20.4497 8.13786 20.4515C7.98841 20.4548 7.86752 20.3714 7.86587 20.27C7.86587 20.1659 7.98323 20.0812 8.13268 20.0787C8.28131 20.0758 8.40302 20.1586 8.40302 20.2611ZM9.4338 20.2216C9.45161 20.3222 9.34831 20.4255 9.20073 20.453C9.05562 20.4795 8.92128 20.4174 8.90286 20.3176C8.88485 20.2145 8.99 20.1113 9.1349 20.0846C9.2827 20.0589 9.41497 20.1193 9.4338 20.2216Z" fill="#1D1B20"/>
</svg>
