<svg width="34" height="25" viewBox="0 0 34 25" fill="none" xmlns="http://www.w3.org/2000/svg">
<g clip-path="url(#clip0_125_252)">
<path d="M2.3244 25.0001H7.74799V12.143L0 6.42871V22.7234C0 23.9734 1.04826 25.0001 2.3244 25.0001Z" fill="#4285F4"/>
<path d="M26.2976 25.0001H31.7212C32.9973 25.0001 34.0456 23.9734 34.0456 22.7234V6.42871L26.2976 12.0984" fill="#34A853"/>
<path d="M26.2976 2.27682V12.1429L34.0456 6.47325V3.39289C34.0456 0.580393 30.7641 -1.02675 28.4853 0.669679" fill="#FBBC04"/>
<path d="M7.74805 12.1429V2.27686L17.0456 9.10721L26.2976 2.27686V12.1429L17.0001 18.9286" fill="#EA4335"/>
<path d="M0 3.39298V6.4287L7.74799 12.0983V2.27691L5.56032 0.669767C3.2815 -0.982019 0 0.625124 0 3.39298Z" fill="#C5221F"/>
</g>
<defs>
<clipPath id="clip0_125_252">
<rect width="34" height="25" fill="white"/>
</clipPath>
</defs>
</svg>
