<svg width="51" height="15" viewBox="0 0 51 15" fill="none" xmlns="http://www.w3.org/2000/svg">
<path d="M2.57955 0.460227V14.8125H0.278409V0.460227H2.57955ZM32.5859 12H29.8928V3.27273H32.7053C33.5518 3.27273 34.2763 3.44744 34.8786 3.79688C35.4808 4.14347 35.9425 4.64205 36.2635 5.29261C36.5845 5.94034 36.745 6.71591 36.745 7.61932C36.745 8.52841 36.5831 9.31108 36.2592 9.96733C35.9354 10.6207 35.4638 11.1236 34.8445 11.4759C34.2251 11.8253 33.4723 12 32.5859 12ZM30.9496 11.0625H32.5178C33.2393 11.0625 33.8374 10.9233 34.3118 10.6449C34.7862 10.3665 35.1399 9.97017 35.3729 9.45597C35.6058 8.94176 35.7223 8.32955 35.7223 7.61932C35.7223 6.91477 35.6072 6.30824 35.3771 5.79972C35.147 5.28835 34.8033 4.89631 34.3459 4.62358C33.8885 4.34801 33.3189 4.21023 32.6371 4.21023H30.9496V11.0625ZM41.1257 12.1364C40.495 12.1364 39.951 11.9972 39.4936 11.7188C39.0391 11.4375 38.6882 11.0455 38.4411 10.5426C38.1967 10.0369 38.0746 9.44886 38.0746 8.77841C38.0746 8.10795 38.1967 7.51705 38.4411 7.00568C38.6882 6.49148 39.032 6.09091 39.4723 5.80398C39.9155 5.5142 40.4325 5.36932 41.0234 5.36932C41.3643 5.36932 41.701 5.42614 42.0334 5.53977C42.3658 5.65341 42.6683 5.83807 42.9411 6.09375C43.2138 6.34659 43.4311 6.68182 43.593 7.09943C43.755 7.51705 43.8359 8.03125 43.8359 8.64205V9.06818H38.7905V8.19886H42.8132C42.8132 7.82955 42.7393 7.5 42.5916 7.21023C42.4467 6.92045 42.2393 6.69176 41.9695 6.52415C41.7024 6.35653 41.3871 6.27273 41.0234 6.27273C40.6229 6.27273 40.2763 6.37216 39.9837 6.57102C39.6939 6.76705 39.4709 7.02273 39.3146 7.33807C39.1584 7.65341 39.0803 7.99148 39.0803 8.35227V8.93182C39.0803 9.42614 39.1655 9.84517 39.3359 10.1889C39.5092 10.5298 39.7493 10.7898 40.0561 10.9688C40.3629 11.1449 40.7195 11.233 41.1257 11.233C41.3899 11.233 41.6286 11.196 41.8416 11.1222C42.0575 11.0455 42.2436 10.9318 42.3999 10.7812C42.5561 10.6278 42.6768 10.4375 42.7621 10.2102L43.7337 10.483C43.6314 10.8125 43.4595 11.1023 43.218 11.3523C42.9766 11.5994 42.6783 11.7926 42.3232 11.9318C41.968 12.0682 41.5689 12.1364 41.1257 12.1364ZM50.5188 5.45455L48.0984 12H47.0756L44.6552 5.45455H45.7461L47.5529 10.6705H47.6211L49.4279 5.45455H50.5188Z" fill="#FF3838"/>
<path d="M8.2951 12V3.27273H13.5621V4.21023H9.35192V7.15909H13.2894V8.09659H9.35192V11.0625H13.6303V12H8.2951ZM17.8022 12.1364C17.2567 12.1364 16.7752 11.9986 16.3576 11.723C15.94 11.4446 15.6133 11.0526 15.3775 10.5469C15.1417 10.0384 15.0238 9.4375 15.0238 8.74432C15.0238 8.05682 15.1417 7.46023 15.3775 6.95455C15.6133 6.44886 15.9414 6.05824 16.3619 5.78267C16.7823 5.5071 17.2681 5.36932 17.8192 5.36932C18.2454 5.36932 18.582 5.44034 18.8292 5.58239C19.0792 5.72159 19.2695 5.88068 19.4002 6.05966C19.5337 6.2358 19.6374 6.38068 19.7113 6.49432H19.7965V3.27273H20.8022V12H19.8306V10.9943H19.7113C19.6374 11.1136 19.5323 11.2642 19.396 11.446C19.2596 11.625 19.065 11.7855 18.8121 11.9276C18.5593 12.0668 18.2227 12.1364 17.8022 12.1364ZM17.9386 11.233C18.342 11.233 18.6829 11.1278 18.9613 10.9176C19.2397 10.7045 19.4513 10.4105 19.5962 10.0355C19.7411 9.65767 19.8136 9.22159 19.8136 8.72727C19.8136 8.23864 19.7425 7.81108 19.6005 7.4446C19.4585 7.07528 19.2482 6.78835 18.9698 6.58381C18.6914 6.37642 18.3477 6.27273 17.9386 6.27273C17.5124 6.27273 17.1573 6.3821 16.8732 6.60085C16.592 6.81676 16.3803 7.1108 16.2383 7.48295C16.0991 7.85227 16.0295 8.26705 16.0295 8.72727C16.0295 9.19318 16.1005 9.61648 16.2425 9.99716C16.3874 10.375 16.6005 10.6761 16.8817 10.9006C17.1658 11.1222 17.5181 11.233 17.9386 11.233ZM26.9087 9.32386V5.45455H27.9144V12H26.9087V10.892H26.8406C26.6871 11.2244 26.4485 11.5071 26.1246 11.7401C25.8008 11.9702 25.3917 12.0852 24.8974 12.0852C24.4883 12.0852 24.1246 11.9957 23.8065 11.8168C23.4883 11.6349 23.2383 11.3622 23.0565 10.9986C22.8746 10.6321 22.7837 10.1705 22.7837 9.61364V5.45455H23.7894V9.54545C23.7894 10.0227 23.9229 10.4034 24.19 10.6875C24.4599 10.9716 24.8036 11.1136 25.2212 11.1136C25.4712 11.1136 25.7255 11.0497 25.984 10.9219C26.2454 10.794 26.4641 10.598 26.6403 10.3338C26.8192 10.0696 26.9087 9.73295 26.9087 9.32386Z" fill="#030104"/>
</svg>
